<svg width="576" height="550" viewBox="0 0 576 550" fill="none" xmlns="http://www.w3.org/2000/svg">
<path d="M272.547 205.888C272.547 205.888 256.887 191.314 250.907 195.436C250.907 195.436 243.077 213.133 239.473 214.501C237.983 218.841 235.832 222.972 232.842 222.831C232.513 224.288 232.545 225.804 232.936 227.246C233.577 229.887 227.465 241.452 223.389 240.32C219.314 239.188 213.494 228.859 215.192 223.038C215.298 222.644 215.383 222.244 215.446 221.84C215.229 221.416 208.051 207.822 207.324 200.728C206.579 193.521 203.466 196.643 203.466 196.643C203.466 196.643 207.598 200.285 201.155 203.153C194.702 206.03 178.694 208.275 185.071 202.313C185.071 202.313 184.137 199.521 181.014 202.068C181.014 202.068 178.76 205.039 184.194 215.142C184.194 215.142 192.608 258.432 191.108 269.271C191.108 269.271 188.74 296.826 191.41 299.449C192.684 300.703 209.079 305.373 225.295 304.901C235.603 304.656 245.831 303.016 255.699 300.024L254.727 262.074C254.517 253.994 256.002 245.961 259.085 238.49L272.547 205.888ZM220.107 287.714C216.811 287.035 213.733 285.554 211.145 283.403C208.576 281.23 206.564 278.474 205.277 275.365C203.985 272.337 203.367 269.063 203.466 265.772C204.091 268.894 205.148 271.913 206.607 274.743C208.026 277.505 209.978 279.958 212.352 281.959C213.519 282.966 214.805 283.825 216.182 284.516C216.852 284.912 217.578 285.186 218.276 285.516C219.012 285.761 219.729 286.091 220.484 286.289C223.547 287.178 226.697 287.732 229.88 287.94C226.637 288.482 223.321 288.405 220.107 287.714Z" fill="black"/>
<path d="M241.869 205.341L241.822 205.36C242.143 199.436 239.134 186.654 239.134 186.654C239.134 186.654 223.087 187.437 220.908 186.87C220.908 186.87 216.126 186.776 216.588 201.209C216.588 201.209 211.569 196.408 212.711 202.436C212.918 203.53 213.135 204.483 213.362 205.303C203.787 199.172 215.333 173.852 215.38 176.06C215.457 176.745 215.771 177.383 216.267 177.862C218.248 180.088 221.333 177.654 224.097 176.692C224.653 176.494 225.191 176.324 225.719 176.173C227.793 175.589 229.973 175.484 232.093 175.868C234.213 176.253 236.218 177.115 237.955 178.39C239.692 179.665 241.116 181.319 242.117 183.226C243.119 185.134 243.673 187.245 243.737 189.399C243.934 194.777 243.304 200.154 241.869 205.341Z" fill="black"/>
<path d="M222.937 219.847C221.443 219.03 220.122 217.931 219.048 216.61C218.507 215.945 218.048 215.218 217.68 214.444C217.321 213.665 217.118 212.824 217.084 211.967C217.344 212.753 217.685 213.509 218.102 214.225C218.528 214.923 219.002 215.592 219.52 216.227C220.589 217.498 221.729 218.707 222.937 219.847Z" fill="black"/>
<path d="M227.606 221.708C228.022 221.855 228.458 221.939 228.899 221.955C229.333 221.998 229.766 222.057 230.204 222.113C230.639 222.187 231.078 222.257 231.518 222.369C231.975 222.473 232.419 222.628 232.842 222.831C231.946 223.123 230.993 223.197 230.063 223.045C229.595 222.977 229.138 222.848 228.703 222.662C228.465 222.586 228.245 222.462 228.057 222.298C227.868 222.134 227.715 221.933 227.606 221.708Z" fill="black"/>
<path d="M241.883 205.364C241.876 205.8 241.843 206.236 241.782 206.668C241.71 207.109 241.605 207.518 241.514 207.944L240.933 210.476C240.537 212.168 240.055 213.839 239.487 215.482C238.936 217.155 238.2 218.762 237.292 220.271C236.818 221.053 236.218 221.752 235.515 222.338C234.763 222.977 233.806 223.324 232.819 223.315L233.306 222.971C233.087 224.034 233.068 225.128 233.252 226.196C233.298 226.468 233.349 226.739 233.413 227.007C233.452 227.175 233.48 227.346 233.496 227.518C233.505 227.687 233.502 227.855 233.488 228.023C233.426 228.638 233.299 229.244 233.109 229.831C232.357 232.074 231.286 234.196 229.931 236.135C229.271 237.122 228.512 238.04 227.666 238.874C226.817 239.79 225.721 240.444 224.51 240.755C224.177 240.819 223.835 240.817 223.503 240.747C223.19 240.669 222.887 240.557 222.598 240.413C222.057 240.133 221.556 239.782 221.106 239.37C220.227 238.58 219.449 237.684 218.791 236.702C217.458 234.783 216.402 232.686 215.654 230.473C215.277 229.367 215.005 228.229 214.841 227.073C214.646 225.91 214.658 224.722 214.875 223.563C215.352 221.308 215.708 219.029 215.941 216.736C216.21 214.445 216.461 212.151 216.691 209.854L217.131 210.273C216.727 210.35 216.309 210.326 215.916 210.203C215.529 210.069 215.178 209.848 214.89 209.557C214.378 209.011 213.972 208.375 213.692 207.681C213.155 206.372 212.745 205.015 212.466 203.627C212.275 202.939 212.133 202.238 212.041 201.529C211.994 201.144 211.99 200.755 212.03 200.37C212.044 200.119 212.111 199.875 212.227 199.653C212.343 199.43 212.504 199.235 212.701 199.08C212.923 198.947 213.171 198.867 213.428 198.845C213.685 198.823 213.944 198.859 214.184 198.952C214.556 199.077 214.912 199.246 215.245 199.454C215.869 199.841 216.453 200.288 216.991 200.788L216.005 201.228C215.984 199.889 215.936 198.55 216.003 197.204C216.041 195.852 216.166 194.504 216.379 193.168C216.578 191.795 216.968 190.457 217.54 189.194C217.696 188.875 217.88 188.563 218.062 188.252C218.267 187.942 218.499 187.651 218.754 187.381C219.017 187.093 219.322 186.846 219.658 186.648C219.833 186.54 220.019 186.451 220.214 186.382C220.44 186.297 220.679 186.25 220.921 186.242L220.953 186.243L221.067 186.262L221.538 186.337L222.083 186.379C222.442 186.413 222.826 186.412 223.196 186.43C223.946 186.45 224.699 186.458 225.457 186.456L230.003 186.402C233.037 186.358 236.076 186.275 239.11 186.17L239.124 186.169C239.235 186.166 239.344 186.201 239.432 186.269C239.52 186.337 239.581 186.434 239.605 186.543C240.285 189.642 240.821 192.759 241.278 195.893C241.51 197.458 241.686 199.032 241.806 200.614C241.95 202.193 241.976 203.78 241.883 205.363C241.882 205.371 241.88 205.379 241.877 205.386C241.873 205.393 241.868 205.4 241.862 205.405C241.856 205.41 241.849 205.414 241.841 205.416C241.834 205.419 241.826 205.42 241.818 205.419C241.802 205.418 241.788 205.411 241.777 205.399C241.767 205.388 241.761 205.372 241.762 205.357C241.763 203.783 241.647 202.211 241.414 200.654C241.205 199.095 240.938 197.543 240.657 195.994C240.096 192.897 239.388 189.82 238.663 186.765L239.157 187.137C236.117 187.316 233.076 187.467 230.035 187.591C228.513 187.657 226.989 187.677 225.461 187.69C224.697 187.697 223.931 187.693 223.162 187.676C222.773 187.659 222.395 187.663 221.997 187.628L221.405 187.585L220.75 187.48L220.896 187.5C220.683 187.539 220.481 187.62 220.299 187.737C220.064 187.877 219.852 188.053 219.67 188.259C219.472 188.472 219.291 188.701 219.131 188.945C218.982 189.208 218.828 189.469 218.694 189.744C218.188 190.908 217.832 192.131 217.635 193.385C217.413 194.666 217.275 195.96 217.222 197.259C217.139 198.564 217.168 199.878 217.171 201.191V201.203C217.171 201.317 217.138 201.429 217.075 201.525C217.013 201.62 216.923 201.695 216.819 201.741C216.714 201.786 216.598 201.8 216.485 201.781C216.372 201.761 216.268 201.709 216.185 201.631C215.712 201.181 215.199 200.777 214.65 200.424C214.398 200.26 214.128 200.126 213.845 200.023C213.586 199.939 213.37 199.945 213.326 199.996C213.254 200.018 213.151 200.241 213.116 200.516C213.079 200.819 213.075 201.125 213.103 201.43C213.172 202.097 213.287 202.76 213.448 203.411C213.675 204.75 214.029 206.063 214.504 207.335C214.977 208.548 215.787 209.767 217.006 209.522C217.064 209.511 217.124 209.513 217.181 209.529C217.237 209.545 217.289 209.575 217.332 209.615C217.376 209.655 217.409 209.705 217.429 209.76C217.449 209.815 217.455 209.875 217.448 209.933L217.447 209.941C217.147 212.234 216.827 214.524 216.486 216.809C216.126 219.091 215.813 221.39 215.277 223.646C214.926 225.905 215.19 228.218 216.042 230.34C216.792 232.504 217.874 234.538 219.249 236.37C219.913 237.284 220.689 238.112 221.557 238.834C221.973 239.188 222.433 239.485 222.926 239.719C223.157 239.824 223.4 239.905 223.648 239.96C223.884 240.002 224.126 239.994 224.359 239.937C225.382 239.613 226.292 239.008 226.987 238.192C227.758 237.374 228.458 236.493 229.079 235.556C230.337 233.679 231.348 231.646 232.085 229.51C232.259 229.001 232.379 228.475 232.444 227.941C232.456 227.821 232.461 227.701 232.457 227.581C232.448 227.466 232.43 227.351 232.405 227.238C232.339 226.943 232.287 226.646 232.242 226.348C232.05 225.131 232.096 223.889 232.377 222.69C232.403 222.588 232.463 222.497 232.548 222.434C232.633 222.372 232.737 222.34 232.842 222.345L232.865 222.346C233.623 222.356 234.359 222.093 234.939 221.605C235.569 221.084 236.117 220.473 236.565 219.79C237.492 218.365 238.257 216.841 238.845 215.246C239.463 213.645 239.995 212.008 240.5 210.358L241.221 207.87C241.332 207.456 241.467 207.033 241.568 206.627C241.659 206.208 241.723 205.784 241.762 205.356C241.763 205.341 241.771 205.326 241.783 205.316C241.795 205.306 241.81 205.3 241.826 205.301C241.842 205.302 241.856 205.309 241.867 205.321C241.878 205.333 241.883 205.348 241.883 205.364L241.883 205.364Z" fill="black"/>
<path d="M241.34 196.773C240.78 196.493 240.259 196.22 239.739 195.983C239.25 195.745 238.731 195.574 238.195 195.475C237.7 195.386 237.19 195.437 236.723 195.623C236.204 195.867 235.725 196.187 235.301 196.573C235.453 195.934 235.829 195.37 236.36 194.983C236.939 194.582 237.654 194.424 238.349 194.545C238.997 194.666 239.605 194.944 240.12 195.356C240.626 195.734 241.042 196.217 241.34 196.773Z" fill="black"/>
<path d="M227.042 195.638C225.851 195.029 224.518 194.756 223.184 194.846C222.548 194.916 221.93 195.101 221.36 195.393C221.05 195.513 220.784 195.725 220.474 195.881C220.182 196.064 219.907 196.277 219.58 196.457C219.751 196.135 219.947 195.826 220.167 195.534C220.406 195.25 220.676 194.992 220.972 194.768C221.583 194.293 222.312 193.995 223.08 193.908C223.849 193.824 224.625 193.949 225.328 194.269C226.01 194.566 226.602 195.038 227.042 195.638Z" fill="black"/>
<path d="M235.496 205.411C235.421 205.884 235.217 206.328 234.907 206.693C234.597 207.059 234.192 207.332 233.737 207.482C233.283 207.644 232.795 207.691 232.318 207.619C231.854 207.557 231.415 207.372 231.047 207.083C231.514 206.989 231.924 206.959 232.316 206.883C232.691 206.82 233.06 206.724 233.417 206.595C233.775 206.472 234.118 206.311 234.443 206.117C234.806 205.9 235.157 205.664 235.496 205.411Z" fill="black"/>
<path d="M237.266 201.796C237.633 201.784 237.98 201.629 238.235 201.365C238.49 201.101 238.632 200.748 238.632 200.381C238.632 200.014 238.49 199.662 238.235 199.398C237.98 199.134 237.633 198.979 237.266 198.966C236.899 198.979 236.552 199.134 236.297 199.398C236.042 199.662 235.899 200.014 235.899 200.381C235.899 200.748 236.042 201.101 236.297 201.365C236.552 201.629 236.899 201.784 237.266 201.796Z" fill="black"/>
<path d="M224.818 201.646C225.184 201.633 225.532 201.478 225.787 201.214C226.042 200.95 226.184 200.598 226.184 200.231C226.184 199.864 226.042 199.511 225.787 199.247C225.532 198.983 225.184 198.828 224.818 198.816C224.451 198.828 224.103 198.983 223.849 199.247C223.594 199.511 223.451 199.864 223.451 200.231C223.451 200.598 223.594 200.95 223.849 201.214C224.103 201.478 224.451 201.633 224.818 201.646Z" fill="black"/>
<path d="M229.335 210.414C229.152 210.951 229.179 211.538 229.411 212.056C229.621 212.535 229.944 212.955 230.354 213.279C230.754 213.612 231.231 213.838 231.741 213.938C232.016 213.992 232.298 213.992 232.572 213.937C232.847 213.881 233.107 213.772 233.339 213.616C233.2 213.931 232.971 214.199 232.682 214.387C232.393 214.575 232.055 214.674 231.71 214.674C231.001 214.698 230.308 214.462 229.76 214.011C229.209 213.569 228.835 212.944 228.704 212.25C228.627 211.915 228.645 211.566 228.757 211.242C228.868 210.917 229.068 210.63 229.335 210.414Z" fill="black"/>
<path d="M203.412 196.67L197.985 185.985L192.496 175.339C190.652 171.8 188.773 168.278 186.802 164.815C185.828 163.079 184.841 161.35 183.791 159.667C183.265 158.827 182.724 157.997 182.152 157.2C181.637 156.419 181.013 155.714 180.3 155.107L180.284 155.096C180.233 155.059 180.189 155.012 180.156 154.958C180.122 154.905 180.1 154.845 180.09 154.782C180.079 154.72 180.082 154.656 180.096 154.594C180.111 154.532 180.137 154.474 180.174 154.423C180.215 154.367 180.266 154.32 180.326 154.286C180.58 154.102 180.778 153.853 180.9 153.565C181.04 153.23 181.119 152.873 181.133 152.51C181.143 151.727 181.019 150.948 180.766 150.206C180.505 149.437 180.183 148.69 179.803 147.972C179.435 147.24 178.993 146.545 178.562 145.842L178.551 145.824C178.532 145.793 178.519 145.759 178.513 145.723L177.783 141.407L177.605 140.325L177.519 139.782L177.479 139.51C177.466 139.438 177.445 139.368 177.419 139.3C177.307 138.995 177.125 138.72 176.889 138.496C176.652 138.272 176.367 138.107 176.056 138.012C175.459 137.909 174.917 138.525 174.878 139.169C174.861 139.853 174.88 140.614 174.885 141.332C174.896 142.06 174.902 142.789 174.943 143.512C174.985 143.72 174.973 143.934 174.91 144.136C174.846 144.338 174.732 144.52 174.579 144.667C174.25 144.921 173.838 145.045 173.422 145.015C172.654 144.958 171.915 144.698 171.281 144.262C170.964 144.062 170.669 143.807 170.392 143.608C170.105 143.403 169.799 143.215 169.487 143.036C168.218 142.334 166.909 141.709 165.565 141.165L163.543 140.351C162.894 140.069 162.224 139.839 161.539 139.664C161.249 139.584 160.942 139.59 160.655 139.681C160.368 139.771 160.113 139.942 159.92 140.173C159.708 140.775 159.734 141.436 159.992 142.02C160.013 142.086 160.015 142.156 159.997 142.222C159.979 142.289 159.943 142.349 159.892 142.395C159.841 142.442 159.778 142.472 159.71 142.484C159.642 142.496 159.573 142.488 159.509 142.461L159.504 142.458L157.753 141.715C157.233 141.439 156.663 141.27 156.078 141.217C155.556 141.175 155.038 141.332 154.628 141.656C154.332 141.929 154.382 142.434 154.607 142.959C154.64 143.036 154.651 143.121 154.638 143.204C154.625 143.287 154.589 143.365 154.533 143.429C154.478 143.492 154.406 143.539 154.326 143.563C154.246 143.588 154.16 143.589 154.079 143.568L154.063 143.563C153.403 143.384 152.734 143.244 152.059 143.143C151.435 143.024 150.795 143.018 150.169 143.127C149.92 143.204 149.692 143.339 149.505 143.522C149.318 143.705 149.178 143.929 149.095 144.177C148.98 144.604 149.274 145.077 149.733 145.484C149.833 145.573 149.897 145.696 149.913 145.829C149.929 145.963 149.895 146.097 149.818 146.207L149.81 146.219C149.648 146.42 149.529 146.653 149.461 146.903C149.392 147.152 149.377 147.413 149.414 147.669C149.508 147.993 150.064 148.238 150.685 148.309C151.05 148.339 151.414 148.391 151.773 148.464C152.138 148.551 152.497 148.661 152.848 148.793C153.526 149.052 154.187 149.356 154.825 149.703C156.072 150.388 157.278 151.145 158.437 151.972C159.595 152.79 160.713 153.638 161.814 154.548L161.746 154.498C163.682 155.729 165.615 156.973 167.568 158.172C168.542 158.767 169.527 159.372 170.506 159.901L170.863 160.082L171.4 160.319C171.504 160.413 171.592 160.523 171.659 160.646L171.782 160.86L171.991 161.265C172.253 161.797 172.49 162.325 172.725 162.855C174.585 167.091 176.207 171.398 177.795 175.723C179.382 180.047 180.878 184.406 182.212 188.817C182.88 191.022 183.523 193.236 184.053 195.482C184.652 197.714 185.013 200.003 185.132 202.311C185.132 202.319 185.13 202.327 185.127 202.335C185.124 202.342 185.12 202.349 185.115 202.354C185.109 202.36 185.102 202.365 185.095 202.368C185.088 202.371 185.08 202.373 185.072 202.373C185.056 202.372 185.041 202.366 185.029 202.355C185.018 202.343 185.011 202.328 185.01 202.312C184.786 200.031 184.322 197.779 183.627 195.594C182.983 193.392 182.291 191.204 181.55 189.03C180.063 184.686 178.462 180.379 176.813 176.093C175.145 171.816 173.423 167.549 171.593 163.358C171.36 162.838 171.123 162.318 170.875 161.82L170.687 161.458L170.595 161.299C170.586 161.269 170.492 161.17 170.6 161.28C170.653 161.311 170.594 161.3 170.793 161.382C170.849 161.399 170.907 161.407 170.965 161.406L170.923 161.403C170.866 161.398 170.81 161.389 170.754 161.377C170.694 161.362 170.635 161.343 170.578 161.32C170.473 161.283 170.417 161.251 170.334 161.216L169.921 161.009C168.874 160.449 167.897 159.852 166.906 159.253C164.938 158.048 162.986 156.83 161.052 155.575L160.99 155.53L160.984 155.524C158.892 153.731 156.64 152.132 154.257 150.749C153.67 150.421 153.062 150.132 152.436 149.885C152.134 149.767 151.825 149.668 151.511 149.589C151.186 149.521 150.857 149.471 150.526 149.442C150.118 149.392 149.721 149.276 149.35 149.1C148.896 148.894 148.541 148.518 148.361 148.052C148.216 147.602 148.221 147.117 148.375 146.67C148.5 146.277 148.686 145.906 148.925 145.569L149.003 146.304C148.687 146.023 148.425 145.687 148.229 145.313C148.015 144.882 147.961 144.39 148.075 143.923C148.199 143.487 148.445 143.095 148.783 142.793C149.099 142.492 149.484 142.275 149.905 142.161C150.668 142.027 151.449 142.041 152.206 142.203C152.919 142.326 153.624 142.492 154.318 142.699L153.774 143.303C153.628 142.956 153.549 142.584 153.541 142.207C153.54 141.991 153.582 141.777 153.665 141.578C153.749 141.379 153.871 141.198 154.026 141.047C154.315 140.807 154.65 140.627 155.009 140.517C155.369 140.407 155.747 140.37 156.121 140.407C156.801 140.479 157.46 140.686 158.06 141.014L159.794 141.798L159.305 142.237C159.151 141.853 159.075 141.443 159.082 141.03C159.089 140.617 159.178 140.209 159.345 139.831C159.466 139.641 159.624 139.476 159.809 139.347C159.995 139.219 160.204 139.129 160.426 139.083C160.825 138.992 161.238 138.983 161.64 139.058C162.364 139.257 163.071 139.516 163.751 139.833L165.765 140.704C167.097 141.31 168.426 141.925 169.704 142.662C170.022 142.85 170.337 143.046 170.641 143.267C170.953 143.498 171.208 143.725 171.506 143.917C172.075 144.318 172.74 144.562 173.434 144.624C173.753 144.653 174.071 144.566 174.33 144.378C174.442 144.271 174.523 144.136 174.565 143.987C174.608 143.838 174.61 143.681 174.573 143.531L174.501 141.339C174.489 140.6 174.457 139.902 174.469 139.129C174.5 138.716 174.669 138.325 174.947 138.017C175.092 137.856 175.274 137.732 175.477 137.656C175.68 137.579 175.899 137.553 176.114 137.577C176.524 137.648 176.899 137.851 177.183 138.155C177.467 138.432 177.694 138.762 177.851 139.126C177.893 139.228 177.924 139.333 177.944 139.441L177.986 139.709L178.078 140.245L178.279 141.318L179.142 145.604L179.093 145.485C179.556 146.189 180.03 146.886 180.436 147.632C180.859 148.375 181.221 149.15 181.519 149.952C181.829 150.781 181.993 151.659 182.002 152.545C182.023 153.043 181.922 153.538 181.706 153.988C181.491 154.437 181.168 154.827 180.767 155.122L180.793 154.3C181.643 154.941 182.379 155.719 182.97 156.604C183.571 157.424 184.129 158.264 184.671 159.112C185.749 160.81 186.77 162.536 187.753 164.281C189.694 167.786 191.534 171.338 193.34 174.906C195.158 178.467 196.861 182.085 198.575 185.696C200.281 189.31 201.931 192.951 203.523 196.618C203.529 196.633 203.53 196.649 203.524 196.664C203.518 196.679 203.507 196.691 203.493 196.698C203.478 196.704 203.462 196.705 203.447 196.7C203.432 196.695 203.42 196.684 203.413 196.67L203.412 196.67Z" fill="black"/>
<path d="M174.708 159.289C173.666 160.241 172.38 160.888 170.994 161.156C170.926 161.168 170.858 161.168 170.791 161.154C170.724 161.14 170.66 161.113 170.604 161.074C170.547 161.036 170.499 160.987 170.462 160.93C170.424 160.872 170.399 160.809 170.386 160.741C170.373 160.674 170.374 160.605 170.388 160.538C170.402 160.472 170.429 160.408 170.468 160.352C170.506 160.295 170.555 160.247 170.613 160.21C170.67 160.173 170.734 160.147 170.801 160.134C170.846 160.126 170.891 160.124 170.936 160.127C172.247 160.199 173.552 159.909 174.708 159.289Z" fill="black"/>
<path d="M173.757 147.048C174.084 148.042 174.32 149.014 174.653 149.947C174.806 150.414 174.992 150.869 175.211 151.309C175.432 151.757 175.714 152.174 176.049 152.546C175.55 152.343 175.12 152.001 174.809 151.561C174.493 151.13 174.246 150.653 174.078 150.146C173.73 149.152 173.621 148.091 173.757 147.048Z" fill="black"/>
<path d="M167.13 145.467L159.285 142.411C159.21 142.381 159.149 142.323 159.117 142.249C159.084 142.175 159.082 142.092 159.112 142.016C159.141 141.941 159.199 141.881 159.273 141.848C159.347 141.816 159.43 141.814 159.506 141.843L159.526 141.852L167.13 145.467Z" fill="black"/>
<path d="M163.337 146.972L154.077 143.492C154.039 143.478 154.005 143.457 153.975 143.43C153.946 143.402 153.922 143.369 153.905 143.333C153.889 143.297 153.879 143.257 153.878 143.217C153.877 143.177 153.883 143.137 153.897 143.1C153.912 143.062 153.933 143.028 153.96 142.998C153.988 142.969 154.021 142.946 154.057 142.929C154.094 142.913 154.133 142.904 154.173 142.902C154.213 142.901 154.253 142.908 154.291 142.922L154.308 142.929L163.337 146.972Z" fill="black"/>
<path d="M159.246 148.431C157.627 147.884 155.991 147.386 154.343 146.947C153.518 146.734 152.69 146.533 151.859 146.377C151.058 146.197 150.235 146.136 149.416 146.194L149.382 146.199C149.343 146.204 149.303 146.202 149.264 146.191C149.225 146.181 149.189 146.164 149.157 146.139C149.125 146.115 149.099 146.085 149.079 146.05C149.058 146.016 149.045 145.978 149.04 145.938C149.035 145.899 149.037 145.858 149.047 145.82C149.057 145.781 149.075 145.745 149.099 145.713C149.123 145.681 149.154 145.654 149.188 145.634C149.223 145.614 149.261 145.601 149.301 145.596L149.32 145.594C150.21 145.57 151.099 145.684 151.955 145.931C152.793 146.14 153.613 146.393 154.429 146.656C156.057 147.194 157.662 147.785 159.246 148.431Z" fill="black"/>
<path d="M268.243 202.272L271.727 189.319L273.442 182.84C273.716 181.759 273.992 180.675 274.229 179.594C274.452 178.513 274.618 177.42 274.725 176.321C275.224 171.891 275.634 167.435 276.099 162.986C276.328 160.76 276.578 158.535 276.851 156.309C276.989 155.197 277.145 154.084 277.319 152.97C277.426 152.412 277.518 151.857 277.641 151.296L277.849 150.45C277.946 150.141 278.06 149.838 278.191 149.541C278.222 149.463 278.281 149.399 278.356 149.361L278.427 149.326C279.426 148.811 280.375 148.207 281.263 147.52C282.169 146.835 283.02 146.081 283.81 145.266C285.395 143.635 286.737 141.785 287.794 139.771L287.801 139.758C287.821 139.719 287.848 139.684 287.879 139.653L293.661 133.949C293.839 133.738 293.954 133.482 293.993 133.209C294.045 132.908 294.053 132.602 294.016 132.299C293.997 132.045 293.88 131.809 293.689 131.641C293.475 131.501 293.217 131.448 292.965 131.49C292.688 131.537 292.43 131.661 292.221 131.85L291.503 132.552C291.012 133.028 290.514 133.496 290.004 133.952C289.002 134.915 287.874 135.738 286.651 136.397C286.472 136.476 286.281 136.526 286.086 136.547C285.961 136.563 285.834 136.545 285.718 136.495C285.602 136.444 285.502 136.363 285.429 136.261C285.339 136.077 285.288 135.876 285.28 135.671C285.272 135.467 285.307 135.263 285.382 135.072C285.626 134.41 285.972 133.789 286.407 133.233C287.238 132.142 288.15 131.115 289.135 130.16C290.148 129.29 290.948 128.199 291.47 126.97C291.703 126.364 291.624 125.677 291.029 125.448C290.74 125.334 290.426 125.298 290.119 125.343C289.812 125.388 289.522 125.513 289.278 125.705C288.153 126.435 287.143 127.327 286.28 128.353C285.834 128.859 285.399 129.376 284.986 129.911C284.557 130.434 284.204 131.007 283.71 131.529C283.465 131.786 283.194 132.017 282.902 132.219C282.754 132.326 282.597 132.42 282.433 132.5C282.328 132.566 282.209 132.605 282.086 132.614C281.963 132.623 281.84 132.602 281.727 132.552C281.655 132.506 281.596 132.441 281.557 132.365C281.533 132.302 281.515 132.238 281.502 132.173C281.491 132.069 281.493 131.964 281.507 131.86C281.53 131.677 281.57 131.497 281.627 131.322C281.729 130.987 281.852 130.659 281.993 130.338C282.272 129.702 282.605 129.09 282.99 128.511L284.146 126.83C284.903 125.722 285.567 124.553 286.131 123.335C286.408 122.768 286.571 122.153 286.61 121.523C286.608 121.398 286.58 121.275 286.527 121.162C286.474 121.048 286.398 120.948 286.304 120.866C286.222 120.782 286.12 120.721 286.008 120.687C285.896 120.653 285.777 120.647 285.662 120.671C285.086 120.847 284.576 121.191 284.198 121.66C283.759 122.145 283.372 122.675 283.043 123.241C282.694 123.81 282.414 124.388 282.109 125.016C281.799 125.639 281.46 126.238 281.106 126.829C280.406 128.026 279.613 129.166 278.733 130.238C278.616 130.373 278.493 130.507 278.358 130.639C278.288 130.709 278.214 130.774 278.137 130.836C278.086 130.884 278.029 130.925 277.967 130.957C277.919 130.983 277.869 131.006 277.817 131.026C277.729 131.048 277.637 131.053 277.546 131.041C277.386 131.014 277.242 130.926 277.144 130.796C277.09 130.724 277.048 130.644 277.019 130.56C276.979 130.447 276.95 130.332 276.933 130.214C276.908 130.025 276.895 129.835 276.892 129.645C276.891 128.944 276.931 128.243 277.012 127.547C277.224 126.185 277.51 124.836 277.868 123.505C278.011 122.884 278.078 122.248 278.069 121.61C278.076 121.004 277.97 120.402 277.758 119.834C277.655 119.594 277.489 119.428 277.465 119.447C277.45 119.464 277.453 119.442 277.429 119.448C277.402 119.466 277.372 119.477 277.34 119.48C277.243 119.541 277.153 119.611 277.07 119.689C276.652 120.149 276.297 120.663 276.017 121.218C275.384 122.37 274.896 123.595 274.562 124.866C274.393 125.504 274.253 126.151 274.134 126.808C274.004 127.478 273.942 128.106 273.757 128.867C273.403 130.237 272.882 131.559 272.207 132.802C271.837 133.538 271.241 134.136 270.507 134.51C270.266 134.607 270.006 134.647 269.747 134.63C269.615 134.623 269.485 134.606 269.356 134.579L269.02 134.434C268.639 134.245 268.301 133.978 268.028 133.651C266.98 132.414 266.752 130.939 266.089 130.009C265.952 129.797 265.769 129.618 265.554 129.485C265.339 129.352 265.098 129.269 264.847 129.241C264.568 129.206 264.285 129.209 264.007 129.251L263.576 129.327C263.469 129.374 263.328 129.405 263.243 129.452C263.062 129.571 263.104 129.539 263.088 129.668C263.129 129.908 263.219 130.136 263.352 130.34C263.658 130.867 264.073 131.405 264.469 131.981C264.679 132.277 264.872 132.586 265.046 132.906C265.233 133.252 265.374 133.621 265.465 134.003C265.63 134.72 265.715 135.399 265.806 136.084L266.279 140.131C266.37 140.795 266.467 141.458 266.602 142.095C266.665 142.404 266.746 142.708 266.846 143.007C266.908 143.225 267.007 143.43 267.138 143.615L267.278 143.834C267.319 143.897 267.346 143.969 267.356 144.044C267.367 144.119 267.362 144.195 267.34 144.268C266.072 148.521 264.73 152.752 263.429 156.995L259.497 169.716L255.565 182.436L251.538 195.128C251.533 195.143 251.522 195.156 251.508 195.164C251.494 195.171 251.478 195.173 251.462 195.168C251.447 195.164 251.434 195.153 251.426 195.139C251.419 195.125 251.417 195.109 251.421 195.093L255.03 182.276L258.735 169.488L262.44 156.699C263.684 152.439 264.889 148.167 266.166 143.916L266.368 144.569C266.183 144.397 266.031 144.192 265.918 143.966C265.821 143.789 265.743 143.603 265.685 143.411C265.568 143.065 265.472 142.712 265.398 142.355C265.249 141.662 265.148 140.979 265.052 140.296L264.565 136.242C264.476 135.58 264.387 134.908 264.244 134.3C264.079 133.718 263.802 133.174 263.429 132.698C263.055 132.153 262.631 131.617 262.251 130.969C262.015 130.599 261.867 130.18 261.819 129.744C261.797 129.601 261.808 129.455 261.85 129.316C261.874 129.161 261.933 129.015 262.024 128.888C262.176 128.651 262.388 128.458 262.638 128.329C262.838 128.235 263.044 128.155 263.255 128.091L263.828 127.985C264.222 127.926 264.623 127.921 265.018 127.971C265.443 128.024 265.852 128.167 266.218 128.39C266.584 128.613 266.898 128.911 267.139 129.265C268.018 130.584 268.229 131.962 268.988 132.813C269.148 133.012 269.347 133.175 269.572 133.295C269.616 133.314 269.658 133.337 269.699 133.362C269.74 133.372 269.776 133.36 269.813 133.369C269.885 133.406 269.965 133.343 270.047 133.339C270.517 133.062 270.896 132.656 271.139 132.169C271.767 131.023 272.255 129.805 272.592 128.542C272.735 127.983 272.828 127.256 272.96 126.591C273.088 125.911 273.241 125.23 273.426 124.555C273.795 123.196 274.329 121.887 275.017 120.657C275.357 120.001 275.79 119.396 276.301 118.861C276.465 118.708 276.649 118.575 276.847 118.468C276.976 118.418 277.108 118.375 277.242 118.34C277.399 118.321 277.557 118.326 277.712 118.353C277.957 118.431 278.18 118.564 278.365 118.742C278.55 118.921 278.69 119.14 278.776 119.382C279.046 120.089 279.179 120.841 279.167 121.597C279.169 122.321 279.082 123.042 278.907 123.744C278.537 125.033 278.235 126.341 278.002 127.662C277.915 128.315 277.866 128.973 277.854 129.632C277.853 129.781 277.861 129.931 277.877 130.079C277.884 130.13 277.894 130.18 277.908 130.229C277.915 130.26 277.912 130.232 277.896 130.22C277.843 130.162 277.773 130.123 277.697 130.108C277.648 130.098 277.598 130.102 277.552 130.12C277.539 130.12 277.527 130.123 277.515 130.129C277.475 130.162 277.53 130.119 277.55 130.101C277.607 130.058 277.661 130.011 277.712 129.961C277.822 129.858 277.931 129.744 278.039 129.623C278.9 128.605 279.681 127.521 280.374 126.382C280.728 125.812 281.069 125.232 281.375 124.643C281.674 124.052 281.999 123.411 282.372 122.827C282.738 122.223 283.166 121.659 283.65 121.143C284.145 120.558 284.812 120.144 285.556 119.96C285.778 119.924 286.004 119.942 286.218 120.011C286.431 120.08 286.626 120.198 286.785 120.356C286.94 120.501 287.065 120.675 287.153 120.868C287.244 121.067 287.291 121.282 287.293 121.501C287.25 122.232 287.056 122.945 286.723 123.597C286.123 124.839 285.42 126.028 284.622 127.152C283.787 128.208 283.06 129.343 282.45 130.542C282.311 130.841 282.19 131.149 282.087 131.462C282.036 131.609 281.999 131.761 281.976 131.915C281.959 131.996 281.959 132.08 281.974 132.161C282.067 132.159 282.158 132.134 282.24 132.088C282.381 132.02 282.517 131.939 282.645 131.848C282.914 131.665 283.164 131.455 283.389 131.221C283.837 130.758 284.211 130.171 284.647 129.645C285.068 129.106 285.513 128.585 285.969 128.074C286.867 127.023 287.917 126.11 289.083 125.366C289.392 125.176 289.73 125.038 290.084 124.958C290.46 124.886 290.849 124.939 291.192 125.109C291.375 125.187 291.536 125.306 291.663 125.459C291.791 125.611 291.88 125.791 291.924 125.985C291.987 126.355 291.951 126.734 291.819 127.085C291.29 128.376 290.469 129.527 289.42 130.446C288.46 131.394 287.572 132.412 286.764 133.492C286.363 134.012 286.045 134.59 285.821 135.206C285.721 135.459 285.719 135.74 285.815 135.995C285.864 136.129 286.185 136.083 286.467 135.956C287.628 135.303 288.692 134.49 289.628 133.541C290.121 133.08 290.604 132.606 291.079 132.124L291.803 131.384C292.097 131.108 292.464 130.923 292.861 130.85C293.286 130.77 293.725 130.859 294.085 131.098C294.426 131.366 294.648 131.757 294.701 132.188C294.758 132.56 294.758 132.938 294.703 133.31C294.652 133.715 294.491 134.098 294.235 134.417L288.53 140.3L288.615 140.182C288.088 141.244 287.484 142.266 286.807 143.239C286.127 144.211 285.371 145.127 284.545 145.978C283.725 146.836 282.841 147.629 281.899 148.352C280.956 149.092 279.946 149.743 278.882 150.296L279.117 150.08C279.048 150.308 278.952 150.489 278.885 150.745L278.699 151.528C278.586 152.059 278.498 152.609 278.399 153.149C278.221 154.244 278.055 155.342 277.909 156.448C277.615 158.657 277.346 160.872 277.102 163.094C276.589 167.534 276.174 171.983 275.59 176.43C275.455 177.553 275.262 178.669 275.01 179.772C274.744 180.871 274.445 181.948 274.148 183.028L272.295 189.479C271.012 193.764 269.689 198.036 268.359 202.306C268.355 202.321 268.344 202.334 268.33 202.342C268.316 202.349 268.299 202.351 268.284 202.347C268.269 202.342 268.256 202.332 268.248 202.318C268.24 202.304 268.238 202.288 268.243 202.272L268.243 202.272Z" fill="black"/>
<path d="M282.955 138.159C282.151 137.23 281.292 136.35 280.384 135.524C279.941 135.125 279.454 134.777 278.933 134.486C278.4 134.195 277.819 134.002 277.218 133.916C277.854 133.768 278.52 133.816 279.128 134.053C279.736 134.288 280.296 134.63 280.782 135.064C281.747 135.904 282.492 136.966 282.955 138.159Z" fill="black"/>
<path d="M275.086 135.623C275.244 136.604 275.246 137.604 275.09 138.586C275.018 139.079 274.903 139.564 274.748 140.038C274.606 140.526 274.357 140.976 274.019 141.356C274.14 140.886 274.23 140.408 274.287 139.926L274.489 138.496C274.618 137.525 274.817 136.565 275.086 135.623Z" fill="black"/>
<path d="M270.449 145.486C269.732 145.57 269.007 145.544 268.298 145.411C267.498 145.279 266.763 144.89 266.205 144.301L266.181 144.275C266.126 144.215 266.084 144.144 266.057 144.068C266.029 143.991 266.017 143.91 266.021 143.829C266.025 143.748 266.045 143.668 266.08 143.594C266.115 143.521 266.164 143.455 266.224 143.4C266.285 143.346 266.355 143.304 266.432 143.277C266.508 143.249 266.59 143.237 266.671 143.242C266.752 143.246 266.832 143.266 266.905 143.301C266.979 143.336 267.044 143.385 267.099 143.445C267.143 143.495 267.179 143.55 267.206 143.611C267.492 144.149 267.945 144.579 268.498 144.836C269.112 145.15 269.77 145.369 270.449 145.486Z" fill="black"/>
<path d="M190.417 300.461C190.437 306.3 190.439 312.139 190.366 317.976C190.303 323.813 190.263 329.65 190.131 335.486L189.784 352.993C189.643 358.828 189.447 364.661 189.196 370.494L188.966 370.003C191.502 371.962 194.235 373.65 197.122 375.04C200.006 376.469 203.07 377.501 206.231 378.106C209.392 378.715 212.644 378.67 215.787 377.972C218.914 377.24 221.83 375.794 224.304 373.747C224.339 373.718 224.378 373.697 224.421 373.685C224.463 373.672 224.508 373.668 224.552 373.674L224.569 373.676C228.016 374.084 231.485 374.281 234.956 374.264C238.417 374.258 241.874 374.018 245.302 373.545C248.703 373.098 252.036 372.231 255.223 370.962C258.368 369.769 261.139 367.762 263.253 365.146L263.084 365.75L261.173 349.329L259.359 332.896L257.531 316.465C256.906 310.989 256.294 305.512 255.617 300.04C255.614 300.018 255.62 299.996 255.633 299.978C255.646 299.96 255.666 299.949 255.688 299.945C255.709 299.942 255.732 299.947 255.75 299.959C255.768 299.972 255.78 299.991 255.784 300.013C256.842 305.428 257.729 310.875 258.562 316.328C259.423 321.777 260.155 327.244 260.897 332.709C261.65 338.172 262.315 343.647 262.977 349.121C263.613 354.599 264.208 360.081 264.763 365.568L264.764 365.582C264.785 365.794 264.724 366.005 264.594 366.173C262.27 368.992 259.237 371.141 255.808 372.4C252.485 373.663 249.012 374.492 245.477 374.868C241.98 375.266 238.459 375.4 234.942 375.271C231.435 375.171 227.937 374.864 224.467 374.35L224.731 374.279C222.143 376.329 219.128 377.772 215.908 378.503C212.69 379.178 209.373 379.232 206.135 378.664C202.906 378.105 199.759 377.149 196.764 375.819C193.749 374.506 190.882 372.875 188.212 370.955C188.14 370.903 188.082 370.835 188.042 370.756C188.002 370.677 187.981 370.59 187.981 370.502L187.982 370.464C188.03 364.626 188.125 358.79 188.266 352.955L188.79 335.452C188.948 329.618 189.199 323.785 189.427 317.952C189.644 312.119 189.937 306.288 190.248 300.457C190.249 300.435 190.259 300.414 190.275 300.399C190.291 300.384 190.312 300.376 190.334 300.377C190.356 300.377 190.377 300.386 190.393 300.402C190.408 300.418 190.417 300.439 190.417 300.461L190.417 300.461Z" fill="black"/>
<path d="M231.472 318.43C232.824 317.976 234.153 317.487 235.475 317.003C236.793 316.506 238.103 315.996 239.369 315.4C240.645 314.837 241.877 314.178 243.054 313.429C244.244 312.685 245.321 311.772 246.249 310.72C245.563 311.997 244.603 313.106 243.437 313.968C242.289 314.845 241.042 315.585 239.721 316.17C238.415 316.765 237.063 317.254 235.679 317.63C234.303 318.021 232.895 318.289 231.472 318.43Z" fill="black"/>
<path d="M224.518 374.013C224.79 369.204 225.265 364.411 225.812 359.626C226.357 354.841 227.063 350.075 227.834 345.318C228.663 340.573 229.562 335.833 230.742 331.156C231.831 326.456 233.336 321.862 235.238 317.428L234.074 320.843L233.082 324.308C232.466 326.628 231.861 328.952 231.376 331.305C230.854 333.649 230.385 336.005 229.912 338.36C229.487 340.725 229.041 343.085 228.669 345.459C227.83 350.192 227.138 354.95 226.456 359.71C226.107 362.089 225.778 364.471 225.469 366.857L224.518 374.013Z" fill="black"/>
<path d="M232.918 374.717L233.592 362.022C233.8 357.792 234.034 353.564 234.141 349.333C234.316 345.104 234.38 340.875 234.332 336.646C234.309 334.533 234.242 332.419 234.065 330.315C233.969 328.203 233.583 326.114 232.918 324.107C233.743 326.072 234.269 328.15 234.478 330.271C234.741 332.383 234.881 334.505 234.983 336.627C235.171 340.873 235.096 345.12 234.987 349.361C234.809 353.601 234.588 357.838 234.24 362.064C233.892 366.291 233.484 370.513 232.918 374.717Z" fill="black"/>
<path d="M189.344 330.246C192.075 329.912 194.821 329.721 197.572 329.673C197.655 329.671 197.738 329.686 197.815 329.716C197.893 329.746 197.964 329.791 198.024 329.848C198.084 329.905 198.132 329.974 198.166 330.05C198.2 330.126 198.218 330.208 198.22 330.291L198.22 330.294L198.221 330.322C198.247 331.714 198.28 333.106 198.218 334.498C198.16 335.89 198.044 337.283 197.955 338.675C197.753 341.455 197.751 344.246 197.95 347.027C198.023 348.419 198.138 349.811 198.197 351.203C198.256 352.595 198.283 353.987 198.317 355.379C198.412 358.164 198.398 360.947 198.307 363.732L198.304 363.794C198.299 363.959 198.234 364.116 198.123 364.238C198.011 364.359 197.859 364.437 197.695 364.456C196.874 364.558 196.047 364.606 195.219 364.6C194.392 364.601 193.567 364.535 192.752 364.401C191.92 364.276 191.113 364.026 190.356 363.659C189.968 363.483 189.62 363.23 189.332 362.916C189.044 362.602 188.823 362.232 188.682 361.83C188.68 361.82 188.679 361.81 188.68 361.8C188.682 361.79 188.685 361.781 188.69 361.772C188.695 361.763 188.702 361.756 188.71 361.75C188.718 361.743 188.727 361.739 188.736 361.736C188.753 361.732 188.77 361.733 188.786 361.74C188.801 361.746 188.814 361.758 188.823 361.772C189.229 362.418 189.869 362.883 190.609 363.068C191.337 363.287 192.092 363.404 192.852 363.415C193.624 363.425 194.395 363.396 195.164 363.327C195.93 363.25 196.717 363.152 197.448 363.007L196.837 363.732C196.745 360.948 196.731 358.164 196.827 355.379C196.861 353.987 196.887 352.595 196.947 351.203C197.006 349.811 197.121 348.419 197.193 347.027C197.392 344.246 197.391 341.455 197.189 338.675C197.099 337.283 196.983 335.89 196.925 334.499C196.864 333.107 196.896 331.714 196.923 330.322L197.572 330.971C194.821 330.923 192.075 330.732 189.344 330.398C189.326 330.396 189.309 330.387 189.296 330.373C189.284 330.359 189.277 330.341 189.277 330.322C189.277 330.304 189.284 330.286 189.296 330.272C189.309 330.258 189.326 330.249 189.344 330.246L189.344 330.246Z" fill="black"/>
<path d="M189.23 336.322C190.65 336.254 192.072 336.347 193.47 336.597C194.875 336.811 196.25 337.183 197.571 337.708C196.152 337.777 194.729 337.685 193.331 337.433C191.927 337.217 190.551 336.845 189.23 336.322Z" fill="black"/>
<path d="M192.026 372.228C191.027 373.323 190.082 374.463 189.183 375.63C188.337 376.862 187.409 378.036 186.406 379.144C185.875 379.684 185.312 380.182 184.734 380.665C184.132 381.147 183.51 381.563 182.893 381.981L179.198 384.438C174.305 387.698 169.699 391.369 165.428 395.41C163.298 397.427 161.274 399.553 159.324 401.746C157.393 403.97 155.58 406.235 153.757 408.601C151.912 410.947 149.938 413.189 147.845 415.317C145.767 417.472 143.417 419.278 141.206 421.264C142.09 420.067 143.089 418.953 144.058 417.834C145.02 416.702 146.037 415.629 147.016 414.536C148.989 412.355 150.825 410.056 152.586 407.705C156.017 402.817 159.937 398.291 164.286 394.199C166.457 392.145 168.745 390.219 171.14 388.431C173.52 386.634 175.993 384.962 178.548 383.423C179.814 382.645 181.111 381.914 182.383 381.168C183.017 380.795 183.644 380.414 184.232 380.015C184.822 379.589 185.401 379.141 185.943 378.66C186.999 377.639 187.986 376.549 188.897 375.397C189.879 374.282 190.923 373.224 192.026 372.228Z" fill="black"/>
<path d="M149.233 438.734C150.675 437.292 152.159 435.893 153.66 434.514C155.163 433.136 156.658 431.747 158.206 430.419C161.295 427.755 164.43 425.14 167.656 422.628C170.891 420.107 174.265 417.77 177.763 415.628C179.535 414.544 181.38 413.586 183.286 412.76C183.764 412.546 184.275 412.386 184.773 412.205C185.256 412.031 185.709 411.888 186.174 411.708C187.095 411.348 188.01 410.956 188.906 410.514C196.074 406.797 202.653 402.04 208.429 396.397C211.35 393.6 213.994 390.529 216.325 387.225C218.746 383.961 220.414 380.201 221.208 376.215C220.87 380.307 219.074 384.15 216.942 387.63C214.727 391.091 212.157 394.311 209.273 397.238C206.424 400.197 203.348 402.93 200.073 405.41C196.811 407.936 193.315 410.144 189.632 412.004C188.705 412.468 187.749 412.885 186.775 413.271C186.293 413.462 185.775 413.63 185.301 413.804C184.844 413.975 184.383 414.121 183.932 414.327C182.095 415.108 180.315 416.017 178.604 417.047C175.146 419.105 171.788 421.385 168.512 423.775C165.206 426.128 161.973 428.594 158.78 431.114C155.568 433.61 152.399 436.165 149.233 438.734Z" fill="black"/>
<path d="M194.5 388.662C193.664 390.047 192.789 391.34 192.09 392.707C191.727 393.37 191.446 394.074 191.252 394.805C191.045 395.543 191.053 396.326 191.275 397.06C191.004 396.736 190.804 396.358 190.687 395.952C190.571 395.546 190.541 395.119 190.599 394.701C190.687 393.867 190.937 393.058 191.336 392.32C192.09 390.87 193.174 389.617 194.5 388.662Z" fill="black"/>
<path d="M150.017 439.582C149.227 438.951 148.234 438.629 147.225 438.676C145.093 438.733 140.423 438.243 138.763 433.252C138.407 432.055 138.298 430.798 138.443 429.558C138.587 428.317 138.981 427.119 139.602 426.036C140.819 423.8 142.112 420.47 140.366 418.527C137.555 415.433 131.763 421.281 131.763 421.281C131.763 421.281 127.811 424.064 124.509 423.781C123.158 423.65 121.796 423.838 120.531 424.329C119.266 424.821 118.134 425.602 117.226 426.611C114.802 429.318 113.519 433.573 119.085 439.356C119.085 439.356 123.292 443.139 125.556 457.204C127.82 471.269 133.48 488.598 143.319 483.476C143.699 483.191 144.011 482.824 144.232 482.403C144.452 481.982 144.575 481.517 144.593 481.042C144.517 480.592 144.329 480.168 144.048 479.809C143.766 479.449 143.399 479.166 142.979 478.985C142.571 478.789 142.13 478.671 141.678 478.636C141.208 478.609 140.738 478.628 140.272 478.693C139.242 478.735 138.215 478.564 137.253 478.193C135.366 477.365 133.771 475.988 132.678 474.24C131.604 472.55 130.772 470.718 130.207 468.797L130.188 468.76V468.731C129.443 465.232 128.65 461.732 127.745 458.279C127.292 456.553 126.811 454.826 126.264 453.138C125.787 451.464 125.09 449.862 124.188 448.374C123.238 446.789 122.479 445.099 121.924 443.337C121.339 441.62 120.849 439.874 120.434 438.11C120.023 436.344 119.739 434.55 119.585 432.743C119.343 430.941 119.504 429.108 120.056 427.375C119.698 429.131 119.698 430.94 120.056 432.696C120.358 434.453 120.748 436.194 121.226 437.912C121.717 439.629 122.273 441.318 122.924 442.969C123.538 444.61 124.312 446.187 125.235 447.676C125.452 447.997 125.745 448.478 125.981 448.874C126.188 449.298 126.405 449.713 126.584 450.138C126.952 450.987 127.263 451.846 127.556 452.713C128.131 454.44 128.631 456.175 129.103 457.921C129.999 461.42 130.801 464.92 131.461 468.477C131.967 470.28 132.695 472.014 133.631 473.637C134.538 475.262 135.916 476.574 137.584 477.401C138.424 477.776 139.333 477.972 140.253 477.976C140.757 477.941 141.262 477.957 141.763 478.023C142.279 478.105 142.775 478.284 143.225 478.551C143.686 478.793 144.079 479.147 144.367 479.581C144.656 480.015 144.83 480.514 144.876 481.032C144.823 481.532 144.654 482.013 144.384 482.437C144.114 482.861 143.75 483.216 143.319 483.476C143.319 483.476 147.092 483.4 147.083 474.127C147.074 468.656 147.196 460.373 147.291 454.515C146.432 454.147 145.649 453.723 144.876 453.308L142.593 452.072C141.861 451.681 141.105 451.337 140.329 451.044C139.55 450.715 138.686 450.648 137.867 450.855C138.197 450.487 138.618 450.211 139.088 450.054C139.557 449.896 140.06 449.864 140.546 449.959C141.495 450.069 142.414 450.361 143.253 450.817C144.069 451.251 144.826 451.787 145.508 452.411C146.212 453.011 146.815 453.722 147.291 454.515C147.366 450.449 147.423 447.544 147.423 447.544C146.706 446.912 146.111 446.28 145.451 445.723C144.82 445.166 144.145 444.661 143.432 444.214C141.963 443.302 140.363 442.621 138.687 442.195C139.593 441.881 140.566 441.81 141.508 441.987C142.462 442.144 143.373 442.494 144.187 443.016C145.005 443.525 145.714 444.192 146.272 444.978C146.832 445.742 147.225 446.617 147.423 447.544C147.423 447.544 153.677 442.648 150.017 439.582ZM131.112 442.139C129.443 442.525 126.32 440.082 127.263 436.714C128.358 432.799 127.782 430.29 129.452 429.903C131.122 429.517 132.848 431.95 133.301 435.327C133.763 438.705 132.782 441.752 131.112 442.139ZM140.442 457.072C141.42 457.125 142.376 457.389 143.244 457.845C144.097 458.28 144.874 458.851 145.545 459.534C146.229 460.184 146.783 460.959 147.177 461.817C145.555 460.864 144.13 459.873 142.602 459.109C141.854 458.726 141.075 458.407 140.272 458.157C139.42 457.946 138.546 457.832 137.668 457.817C138.489 457.276 139.461 457.015 140.442 457.072Z" fill="black"/>
<path d="M235.162 374.243C234.332 375.472 233.563 376.737 232.842 378.022C232.184 379.364 231.436 380.66 230.604 381.901C230.157 382.513 229.673 383.087 229.17 383.649C228.645 384.213 228.09 384.715 227.54 385.218L224.239 388.185C219.871 392.12 215.846 396.419 212.206 401.036C210.391 403.341 208.697 405.738 207.085 408.19C205.497 410.671 204.031 413.176 202.571 415.781C201.085 418.369 199.457 420.874 197.695 423.283C195.952 425.716 193.888 427.844 191.988 430.129C192.689 428.817 193.516 427.57 194.313 426.322C195.1 425.063 195.951 423.854 196.761 422.63C198.397 420.186 199.881 417.646 201.283 415.064C203.968 409.73 207.191 404.684 210.9 400.004C212.751 397.657 214.736 395.42 216.846 393.304C218.94 391.18 221.145 389.168 223.449 387.275C224.59 386.32 225.767 385.409 226.916 384.487C227.491 384.026 228.055 383.558 228.579 383.078C229.101 382.571 229.609 382.044 230.076 381.49C230.973 380.326 231.791 379.105 232.525 377.833C233.335 376.587 234.215 375.389 235.162 374.243Z" fill="black"/>
<path d="M202.464 446.251C207.705 439.345 213.369 432.769 219.422 426.562C222.454 423.425 225.703 420.507 229.146 417.828C230.025 417.168 230.924 416.529 231.865 415.935C232.782 415.338 233.868 414.817 234.742 414.346C236.579 413.297 238.323 412.095 239.956 410.751C243.27 408.043 246.351 405.062 249.168 401.84C252.009 398.628 254.584 395.19 256.867 391.56C259.163 387.939 260.964 384.026 262.22 379.927C263.557 375.816 263.666 371.405 262.532 367.234C264.111 371.304 263.918 375.887 262.904 380.107C261.808 384.343 260.108 388.4 257.856 392.151C253.428 399.704 247.721 406.43 240.991 412.03C239.289 413.443 237.471 414.709 235.555 415.814C234.525 416.367 233.666 416.797 232.761 417.368C231.869 417.921 231 418.529 230.146 419.161C226.751 421.784 223.514 424.604 220.45 427.606C217.341 430.585 214.299 433.643 211.324 436.779C208.34 439.902 205.387 443.059 202.464 446.251Z" fill="black"/>
<path d="M239.993 390.146C239.366 391.637 238.688 393.043 238.194 394.497C237.932 395.206 237.755 395.943 237.67 396.694C237.572 397.455 237.693 398.228 238.019 398.922C237.704 398.641 237.451 398.296 237.277 397.911C237.103 397.526 237.011 397.108 237.008 396.686C236.974 395.848 237.104 395.011 237.392 394.224C237.928 392.679 238.818 391.282 239.993 390.146Z" fill="black"/>
<path d="M205.466 481.58C204.966 478.193 204.353 473.703 203.777 469.392C202.032 468.675 200.476 467.901 198.862 467.373C198.066 467.103 197.249 466.901 196.419 466.769C195.543 466.679 194.66 466.691 193.787 466.807C194.522 466.158 195.443 465.759 196.419 465.666C197.396 465.589 198.378 465.711 199.306 466.024C200.213 466.329 201.064 466.782 201.824 467.364C202.597 467.911 203.259 468.599 203.777 469.392C203.438 466.826 203.107 464.316 202.834 462.147C201.964 461.911 201.107 461.627 200.268 461.298L197.834 460.411C197.051 460.132 196.25 459.902 195.438 459.722C194.618 459.507 193.75 459.567 192.967 459.892C193.246 459.483 193.624 459.152 194.066 458.929C194.508 458.706 195 458.6 195.495 458.619C196.449 458.593 197.4 458.75 198.296 459.081C199.17 459.389 200.001 459.807 200.768 460.326C201.546 460.823 202.243 461.437 202.834 462.147C202.306 458.119 201.947 455.232 201.947 455.232C201.155 454.713 200.466 454.166 199.73 453.713C199.026 453.256 198.288 452.853 197.523 452.506C195.934 451.823 194.252 451.384 192.533 451.204C193.379 450.757 194.331 450.545 195.287 450.591C196.253 450.612 197.205 450.824 198.089 451.214C198.973 451.604 199.771 452.165 200.438 452.864C201.103 453.538 201.617 454.345 201.947 455.232C201.947 455.232 207.428 449.478 203.362 446.978C202.489 446.465 201.459 446.291 200.466 446.487C198.362 446.846 193.683 447.044 191.306 442.346C190.782 441.212 190.493 439.984 190.458 438.736C190.422 437.487 190.64 436.244 191.099 435.082C191.976 432.696 192.768 429.205 190.759 427.545C187.533 424.885 182.646 431.517 182.646 431.517C182.646 431.517 179.137 434.847 175.826 435.045C174.472 435.111 173.152 435.493 171.972 436.162C170.793 436.83 169.786 437.766 169.034 438.894C167.034 441.931 166.383 446.318 172.722 451.242C172.722 451.242 177.43 454.374 181.712 467.958C185.995 481.551 194.108 497.871 203.098 491.372C203.434 491.037 203.689 490.63 203.846 490.183C204.003 489.735 204.057 489.258 204.004 488.787C203.865 488.353 203.62 487.96 203.29 487.645C202.96 487.331 202.557 487.104 202.117 486.985C201.685 486.847 201.23 486.793 200.777 486.825C200.308 486.867 199.843 486.956 199.391 487.089C198.375 487.278 197.332 487.258 196.325 487.032C194.34 486.486 192.565 485.355 191.231 483.787C189.922 482.268 188.833 480.572 187.995 478.75L187.976 478.721L187.967 478.693C186.722 475.344 185.429 471.995 184.033 468.703C183.335 467.062 182.609 465.43 181.826 463.836C181.108 462.25 180.185 460.766 179.081 459.421C177.911 457.992 176.913 456.431 176.109 454.77C175.284 453.154 174.541 451.498 173.883 449.808C173.216 448.124 172.674 446.393 172.26 444.629C171.762 442.878 171.656 441.039 171.949 439.243C171.848 441.031 172.108 442.821 172.713 444.506C173.271 446.201 173.913 447.866 174.637 449.497C175.364 451.119 176.166 452.714 177.052 454.26C177.896 455.791 178.888 457.235 180.014 458.572C180.279 458.864 180.637 459.298 180.929 459.656C181.184 460.043 181.467 460.43 181.712 460.826C182.194 461.609 182.627 462.411 183.043 463.222C183.863 464.845 184.609 466.496 185.325 468.156C186.722 471.486 188.023 474.844 189.193 478.259C189.953 479.97 190.922 481.58 192.08 483.051C193.218 484.524 194.773 485.622 196.542 486.202C197.429 486.446 198.357 486.507 199.268 486.381C199.761 486.273 200.263 486.216 200.768 486.212C201.289 486.217 201.804 486.319 202.287 486.514C202.779 486.687 203.22 486.982 203.568 487.371C203.916 487.76 204.16 488.231 204.277 488.74C204.3 489.24 204.206 489.739 204.001 490.196C203.796 490.653 203.487 491.056 203.098 491.372C203.098 491.372 206.815 490.749 205.466 481.58ZM185.024 452.251C183.429 452.864 179.986 450.912 180.43 447.44C180.948 443.403 180.014 441.007 181.609 440.384C183.203 439.761 185.269 441.912 186.212 445.186C187.146 448.468 186.618 451.629 185.024 452.251Z" fill="black"/>
<path d="M128.351 172.708C128.87 177.183 129.642 181.625 130.662 186.013C131.65 190.365 133.023 194.621 134.763 198.731C135.615 200.776 136.621 202.754 137.773 204.646C138.897 206.548 140.192 208.343 141.641 210.01C143.106 211.67 144.74 213.174 146.515 214.497C148.349 215.791 150.31 216.896 152.368 217.793C150.144 217.248 148.004 216.4 146.01 215.273C144.026 214.085 142.197 212.654 140.565 211.014C137.359 207.67 134.805 203.758 133.032 199.478C131.249 195.252 129.971 190.83 129.224 186.305C128.426 181.819 128.133 177.259 128.351 172.708Z" fill="black"/>
<path d="M123.084 202.981C124.516 207.067 126.217 211.053 128.175 214.915C129.17 216.822 130.197 218.707 131.35 220.51C132.466 222.329 133.703 224.071 135.051 225.726C137.664 229.075 140.841 231.943 144.44 234.201C146.267 235.289 148.205 236.18 150.22 236.86C152.278 237.515 154.394 237.972 156.539 238.224C154.341 238.357 152.134 238.199 149.977 237.754C147.804 237.266 145.701 236.503 143.719 235.485C141.749 234.431 139.899 233.168 138.199 231.718C136.524 230.25 134.979 228.641 133.582 226.908C130.842 223.435 128.577 219.612 126.848 215.54C125.08 211.525 123.816 207.307 123.084 202.981Z" fill="black"/>
<path d="M85.7946 391.748C84.4319 396.042 83.3129 400.409 82.4428 404.829C81.5583 409.204 81.0637 413.648 80.9648 418.11C80.9024 420.325 81.0086 422.541 81.2824 424.739C81.5272 426.935 81.9713 429.103 82.609 431.217C83.2637 433.333 84.1364 435.374 85.2128 437.31C86.3541 439.243 87.6893 441.054 89.1978 442.717C87.3927 441.307 85.7897 439.656 84.4335 437.811C83.1116 435.912 82.0306 433.857 81.2154 431.692C79.6641 427.327 78.9397 422.711 79.0795 418.081C79.1878 413.495 79.8365 408.939 81.0124 404.505C82.125 400.088 83.7291 395.809 85.7946 391.748Z" fill="black"/>
<path d="M68.5699 417.194C68.1998 421.507 68.1148 425.841 68.3156 430.166C68.4412 432.313 68.6036 434.454 68.9152 436.571C69.1871 438.688 69.5998 440.784 70.1506 442.846C71.1593 446.973 72.8798 450.892 75.2348 454.427C76.455 456.169 77.8561 457.777 79.4145 459.224C81.0228 460.666 82.7652 461.951 84.6179 463.061C82.5585 462.28 80.6112 461.231 78.8268 459.94C77.0449 458.603 75.4401 457.044 74.0508 455.302C72.6871 453.533 71.5175 451.622 70.5623 449.602C69.6373 447.577 68.8891 445.475 68.3259 443.321C67.2518 439.03 66.7551 434.614 66.8491 430.191C66.8843 425.804 67.4623 421.439 68.5699 417.194Z" fill="black"/>
<path d="M308.651 274.36C308.842 278.912 308.522 283.47 307.698 287.951C306.925 292.472 305.621 296.886 303.813 301.101C302.016 305.371 299.438 309.268 296.213 312.593C294.572 314.223 292.734 315.643 290.743 316.82C288.742 317.935 286.598 318.771 284.37 319.302C286.433 318.417 288.401 317.325 290.242 316.041C292.026 314.728 293.668 313.234 295.143 311.582C296.602 309.924 297.907 308.136 299.042 306.242C300.205 304.356 301.223 302.384 302.086 300.344C303.851 296.245 305.249 291.997 306.262 287.651C307.308 283.269 308.106 278.832 308.651 274.36Z" fill="black"/>
<path d="M313.741 304.663C312.984 308.984 311.695 313.195 309.904 317.199C308.151 321.261 305.864 325.071 303.103 328.527C301.695 330.252 300.141 331.853 298.458 333.311C296.75 334.75 294.892 336.002 292.916 337.045C290.928 338.052 288.821 338.802 286.644 339.278C284.485 339.71 282.278 339.855 280.08 339.709C282.227 339.469 284.345 339.025 286.407 338.382C288.426 337.714 290.369 336.834 292.203 335.757C295.814 333.52 299.008 330.671 301.641 327.337C302.999 325.691 304.246 323.956 305.373 322.143C306.536 320.347 307.574 318.468 308.581 316.567C310.561 312.717 312.285 308.74 313.741 304.663Z" fill="black"/>
<path d="M128.845 95.9994C128.854 95.7944 128.82 95.5899 128.747 95.3982C128.674 95.2066 128.562 95.0318 128.42 94.8847L122.693 89.4997C122.254 89.1308 121.695 89.3112 121.41 89.8982C121.271 90.1935 121.219 90.5222 121.258 90.8462C121.298 91.1702 121.429 91.4763 121.636 91.7292L126.169 95.9994L121.636 100.27C121.361 100.576 121.21 100.973 121.21 101.384C121.21 101.796 121.361 102.193 121.636 102.499L126.169 106.77L121.636 111.04C121.361 111.346 121.21 111.743 121.21 112.155C121.21 112.566 121.361 112.963 121.636 113.269L127.362 118.654C127.801 119.064 128.391 118.897 128.681 118.285C128.827 117.984 128.88 117.647 128.833 117.315C128.787 116.984 128.643 116.674 128.42 116.425L123.886 112.154L128.42 107.884C128.694 107.578 128.845 107.181 128.845 106.77C128.845 106.358 128.694 105.961 128.42 105.655L123.886 101.384L128.42 97.1142C128.562 96.967 128.674 96.7923 128.747 96.6006C128.82 96.4089 128.854 96.2044 128.845 95.9994L128.845 95.9994Z" fill="black"/>
<path d="M94.7225 329.328C94.7073 329.717 94.8283 330.1 95.0647 330.41L98.7087 334.557L95.0647 338.703C94.8908 338.964 94.7826 339.263 94.7492 339.574C94.7158 339.885 94.7582 340.2 94.8728 340.492C95.0999 341.072 95.5617 341.247 95.9147 340.868L100.518 335.639C100.74 335.322 100.86 334.944 100.86 334.557C100.86 334.169 100.74 333.791 100.518 333.474L96.8737 329.328L100.518 325.181C100.74 324.864 100.86 324.486 100.86 324.099C100.86 323.711 100.74 323.333 100.518 323.016L96.8737 318.87L100.518 314.723C100.691 314.463 100.8 314.164 100.833 313.853C100.867 313.541 100.824 313.226 100.709 312.935C100.482 312.354 100.021 312.179 99.6677 312.558L95.0647 317.787C94.842 318.104 94.7225 318.482 94.7225 318.87C94.7225 319.257 94.842 319.635 95.0647 319.952L98.7087 324.099L95.0647 328.245C94.8257 328.554 94.7044 328.938 94.7225 329.328Z" fill="#2DA802"/>
<path d="M73.0242 172.66C73.009 173.05 73.13 173.433 73.3664 173.743L77.0104 177.889L73.3664 182.036C73.1926 182.296 73.0844 182.595 73.051 182.906C73.0176 183.218 73.06 183.533 73.1746 183.824C73.4017 184.405 73.8635 184.58 74.2164 184.201L78.8194 178.972C79.0421 178.655 79.1616 178.277 79.1616 177.889C79.1616 177.502 79.0421 177.124 78.8194 176.807L75.1754 172.66L78.8194 168.514C79.0421 168.197 79.1616 167.819 79.1616 167.431C79.1616 167.044 79.0421 166.666 78.8194 166.349L75.1754 162.202L78.8194 158.056C78.9932 157.795 79.1015 157.496 79.1349 157.185C79.1683 156.874 79.1258 156.559 79.0112 156.267C78.7842 155.687 78.3223 155.512 77.9694 155.891L73.3664 161.12C73.1437 161.437 73.0242 161.815 73.0242 162.202C73.0242 162.59 73.1437 162.968 73.3664 163.285L77.0104 167.431L73.3664 171.578C73.1274 171.887 73.0061 172.27 73.0242 172.66Z" fill="#00A3FF"/>
<path d="M334.954 378.907C334.939 379.318 335.085 379.717 335.36 380.022L339.686 384.292L335.36 388.563C335.156 388.819 335.027 389.126 334.986 389.451C334.946 389.776 334.997 390.106 335.132 390.404C335.402 391.002 335.95 391.183 336.369 390.792L341.834 385.407C342.096 385.095 342.24 384.7 342.24 384.292C342.24 383.885 342.096 383.49 341.834 383.178L337.508 378.907L341.834 374.637C342.096 374.325 342.24 373.93 342.24 373.522C342.24 373.115 342.096 372.72 341.834 372.408L337.508 368.137L341.834 363.867C342.038 363.611 342.167 363.303 342.207 362.978C342.247 362.653 342.197 362.323 342.062 362.025C341.792 361.428 341.244 361.247 340.825 361.638L335.36 367.023C335.097 367.335 334.954 367.729 334.954 368.137C334.954 368.545 335.097 368.94 335.36 369.252L339.686 373.522L335.36 377.793C335.222 377.943 335.116 378.118 335.046 378.31C334.976 378.501 334.945 378.704 334.954 378.907Z" fill="#FF006B"/>
<path d="M349.976 210.641L346.578 213.711C345.74 214.595 345.273 215.767 345.273 216.986C345.273 218.204 345.74 219.376 346.578 220.261L347.557 221.155C347.834 221.449 347.988 221.838 347.988 222.243C347.988 222.647 347.834 223.036 347.557 223.331L346.578 224.225C345.74 225.109 345.273 226.281 345.273 227.5C345.273 228.718 345.74 229.891 346.578 230.775L347.557 231.669C347.834 231.963 347.988 232.352 347.988 232.757C347.988 233.161 347.834 233.55 347.557 233.845L346.578 234.739C345.74 235.623 345.273 236.795 345.273 238.014C345.273 239.232 345.74 240.405 346.578 241.289L347.557 242.183C347.834 242.477 347.988 242.867 347.988 243.271C347.988 243.675 347.834 244.065 347.557 244.359L344.15 247.44C343.934 247.681 343.796 247.981 343.753 248.301C343.71 248.622 343.763 248.948 343.907 249.238C343.949 249.367 344.022 249.483 344.119 249.578C344.216 249.672 344.336 249.741 344.466 249.778C344.596 249.815 344.733 249.82 344.866 249.792C344.999 249.764 345.122 249.703 345.226 249.616L348.625 246.546C349.463 245.662 349.93 244.489 349.93 243.271C349.93 242.053 349.463 240.88 348.625 239.996L347.646 239.102C347.503 238.96 347.392 238.79 347.319 238.603C347.246 238.415 347.213 238.215 347.222 238.014C347.213 237.812 347.246 237.611 347.321 237.423C347.395 237.236 347.509 237.066 347.654 236.926L348.632 236.032C349.466 235.145 349.93 233.974 349.93 232.757C349.93 231.54 349.466 230.369 348.632 229.482L347.654 228.588C347.377 228.293 347.222 227.904 347.222 227.5C347.222 227.096 347.377 226.706 347.654 226.412L348.632 225.518C349.466 224.631 349.93 223.46 349.93 222.243C349.93 221.026 349.466 219.855 348.632 218.968L347.654 218.074C347.377 217.779 347.222 217.39 347.222 216.986C347.222 216.581 347.377 216.192 347.654 215.898L351.052 212.817C351.278 212.578 351.425 212.276 351.474 211.952C351.523 211.627 351.471 211.295 351.326 211.001C351.284 210.868 351.21 210.748 351.109 210.651C351.008 210.555 350.885 210.486 350.75 210.45C350.616 210.414 350.474 210.413 350.339 210.446C350.204 210.479 350.079 210.546 349.976 210.641V210.641Z" fill="#FFB800"/>
<path d="M309.919 95.0577L306.329 91.9021C306.037 91.6042 305.874 91.2041 305.874 90.7875C305.874 90.3708 306.037 89.9707 306.329 89.6728L307.36 88.7573C308.242 87.8631 308.736 86.658 308.736 85.4024C308.736 84.1468 308.242 82.9417 307.36 82.0475L306.329 81.1322C306.037 80.8342 305.874 80.4341 305.874 80.0175C305.874 79.6008 306.037 79.2007 306.329 78.9027L307.36 77.9872C308.242 77.0931 308.736 75.888 308.736 74.6324C308.736 73.3768 308.242 72.1717 307.36 71.2775L306.329 70.3621C306.037 70.0642 305.874 69.664 305.874 69.2473C305.874 68.8307 306.037 68.4305 306.329 68.1326L307.36 67.2172C308.242 66.3231 308.736 65.1179 308.736 63.8624C308.736 62.6068 308.242 61.4016 307.36 60.5075L303.778 57.3626C303.668 57.273 303.539 57.211 303.4 57.1819C303.262 57.1528 303.118 57.1575 302.982 57.1955C302.846 57.2335 302.721 57.3038 302.617 57.4003C302.514 57.4969 302.435 57.6169 302.388 57.7503C302.236 58.0464 302.18 58.382 302.225 58.7115C302.271 59.0409 302.417 59.3483 302.644 59.592L306.234 62.7477C306.526 63.0455 306.689 63.4457 306.689 63.8624C306.689 64.279 306.526 64.6792 306.234 64.9771L305.203 65.8924C304.321 66.7865 303.827 67.9917 303.827 69.2473C303.827 70.503 304.321 71.7081 305.203 72.6023L306.234 73.5177C306.526 73.8156 306.689 74.2157 306.689 74.6324C306.689 75.0491 306.526 75.4492 306.234 75.747L305.203 76.6626C304.321 77.5567 303.827 78.7618 303.827 80.0174C303.827 81.2731 304.321 82.4782 305.203 83.3723L306.234 84.2877C306.526 84.5856 306.689 84.9857 306.689 85.4024C306.689 85.8191 306.526 86.2193 306.234 86.5172L305.203 87.4326C304.321 88.3267 303.827 89.5319 303.827 90.7875C303.827 92.0431 304.321 93.2482 305.203 94.1423L308.785 97.2872C308.894 97.3819 309.024 97.4487 309.164 97.4817C309.304 97.5146 309.451 97.5129 309.59 97.4765C309.729 97.4402 309.858 97.3703 309.964 97.2731C310.07 97.1758 310.151 97.054 310.2 96.9184C310.356 96.6184 310.412 96.2767 310.362 95.9425C310.312 95.6082 310.157 95.2985 309.919 95.0577H309.919Z" fill="#FFC700"/>
<path d="M242.642 75.9155C242.715 76.9942 242.461 78.07 241.915 79.0028C241.368 79.9357 240.553 80.6825 239.577 81.1462C238.6 81.6099 237.506 81.7691 236.438 81.603C235.369 81.4369 234.376 80.9532 233.586 80.2148C232.796 79.4765 232.246 78.5176 232.009 77.4628C231.771 76.408 231.856 75.3061 232.253 74.3003C232.65 73.2945 233.34 72.4314 234.234 71.8231C235.128 71.2149 236.184 70.8896 237.266 70.8896C238.644 70.8459 239.984 71.3502 240.992 72.2922C241.999 73.2341 242.593 74.537 242.642 75.9155Z" fill="#FF0000"/>
<path d="M305.179 415.163C305.252 416.246 304.998 417.325 304.45 418.261C303.901 419.196 303.084 419.946 302.104 420.411C301.124 420.876 300.027 421.036 298.955 420.869C297.883 420.702 296.887 420.217 296.094 419.476C295.302 418.736 294.751 417.774 294.512 416.716C294.274 415.657 294.359 414.552 294.757 413.543C295.155 412.534 295.848 411.668 296.745 411.058C297.641 410.448 298.701 410.122 299.786 410.122C301.169 410.078 302.513 410.584 303.524 411.529C304.535 412.474 305.13 413.78 305.179 415.163Z" fill="#FF004D"/>
<path d="M366.396 159.288C366.455 160.155 366.251 161.02 365.812 161.77C365.372 162.519 364.718 163.119 363.933 163.492C363.148 163.865 362.269 163.993 361.41 163.859C360.552 163.726 359.753 163.337 359.118 162.744C358.484 162.15 358.042 161.38 357.851 160.532C357.66 159.684 357.728 158.799 358.047 157.991C358.366 157.182 358.921 156.489 359.639 156C360.358 155.511 361.207 155.25 362.075 155.25C363.184 155.214 364.261 155.619 365.07 156.376C365.88 157.133 366.357 158.181 366.396 159.288Z" fill="black"/>
<path d="M170.486 339.41C170.544 340.277 170.341 341.141 169.901 341.891C169.462 342.64 168.807 343.24 168.023 343.613C167.238 343.986 166.359 344.114 165.5 343.98C164.642 343.847 163.843 343.458 163.208 342.865C162.573 342.271 162.132 341.501 161.941 340.653C161.75 339.805 161.818 338.92 162.137 338.112C162.456 337.303 163.011 336.61 163.729 336.121C164.448 335.632 165.296 335.371 166.165 335.371C167.273 335.335 168.35 335.74 169.16 336.497C169.97 337.254 170.447 338.302 170.486 339.41Z" fill="#FFCECE"/>
<path d="M217.083 155.376C220.725 155.376 220.731 149.716 217.083 149.716C213.441 149.716 213.435 155.376 217.083 155.376Z" fill="black"/>
<path d="M115.155 252.648C118.797 252.648 118.803 246.988 115.155 246.988C111.513 246.988 111.507 252.648 115.155 252.648Z" fill="#FFE600"/>
<path d="M334.953 325.016C338.595 325.016 338.601 319.356 334.953 319.356C331.311 319.356 331.305 325.016 334.953 325.016Z" fill="black"/>
<path d="M290.31 232.962C293.952 232.962 293.958 227.302 290.31 227.302C286.668 227.302 286.662 232.962 290.31 232.962Z" fill="black"/>
</svg>
