<svg width="29" height="21" viewBox="0 0 29 21" fill="none" xmlns="http://www.w3.org/2000/svg">
<path d="M24.8182 0H3.81818C2.80554 0 1.83437 0.402271 1.11832 1.11832C0.402272 1.83437 0 2.80554 0 3.81818V17.1818C0 18.1945 0.402272 19.1656 1.11832 19.8817C1.83437 20.5977 2.80554 21 3.81818 21H24.8182C25.8308 21 26.802 20.5977 27.518 19.8817C28.2341 19.1656 28.6364 18.1945 28.6364 17.1818V3.81818C28.6364 2.80554 28.2341 1.83437 27.518 1.11832C26.802 0.402271 25.8308 0 24.8182 0ZM9.54545 9.54545H19.0909C19.3441 9.54545 19.5869 9.64602 19.7659 9.82503C19.9449 10.004 20.0455 10.2468 20.0455 10.5C20.0455 10.7532 19.9449 10.996 19.7659 11.175C19.5869 11.354 19.3441 11.4545 19.0909 11.4545H9.54545C9.29229 11.4545 9.0495 11.354 8.87049 11.175C8.69148 10.996 8.59091 10.7532 8.59091 10.5C8.59091 10.2468 8.69148 10.004 8.87049 9.82503C9.0495 9.64602 9.29229 9.54545 9.54545 9.54545ZM22.9091 16.2273H5.72727C5.47411 16.2273 5.23132 16.1267 5.05231 15.9477C4.8733 15.7687 4.77273 15.5259 4.77273 15.2727C4.77273 15.0196 4.8733 14.7768 5.05231 14.5978C5.23132 14.4187 5.47411 14.3182 5.72727 14.3182H22.9091C23.1623 14.3182 23.405 14.4187 23.5841 14.5978C23.7631 14.7768 23.8636 15.0196 23.8636 15.2727C23.8636 15.5259 23.7631 15.7687 23.5841 15.9477C23.405 16.1267 23.1623 16.2273 22.9091 16.2273Z" fill="#ACB8C2"/>
</svg>
