<svg width="21" height="17" viewBox="0 0 21 17" fill="none" xmlns="http://www.w3.org/2000/svg">
<path d="M2.56236 0.806105L9.86274 6.47205V1.60104C9.86276 1.41427 9.91431 1.23124 10.0116 1.07262C10.1088 0.914003 10.2479 0.786125 10.4131 0.70344C10.5782 0.620755 10.7629 0.58656 10.9463 0.60472C11.1296 0.62288 11.3043 0.692671 11.4506 0.806204L20.3383 7.7043C20.4586 7.79785 20.556 7.9182 20.6231 8.05603C20.6901 8.19387 20.725 8.3455 20.725 8.49918C20.725 8.65287 20.6901 8.8045 20.6231 8.94233C20.556 9.08017 20.4586 9.20051 20.3383 9.29407L11.4506 16.1933C11.3042 16.3065 11.1296 16.376 10.9464 16.394C10.7631 16.412 10.5786 16.3778 10.4135 16.2951C10.2484 16.2125 10.1094 16.0848 10.0121 15.9263C9.91479 15.7679 9.86306 15.5851 9.86274 15.3984V10.5267L2.56334 16.1934C2.41707 16.307 2.24233 16.377 2.0589 16.3952C1.87547 16.4134 1.69066 16.3793 1.52539 16.2965C1.36012 16.2138 1.22099 16.0859 1.12372 15.9272C1.02645 15.7684 0.974937 15.5853 0.975006 15.3984V1.60104C0.975451 1.41451 1.02723 1.23181 1.12453 1.07349C1.22182 0.915178 1.36077 0.787533 1.52572 0.704923C1.69068 0.622313 1.87511 0.588016 2.05825 0.605891C2.24139 0.623767 2.41597 0.693106 2.56236 0.806105Z" fill="#ACB8C2"/>
</svg>
