<svg width="24" height="21" viewBox="0 0 24 21" fill="none" xmlns="http://www.w3.org/2000/svg">
<path fill-rule="evenodd" clip-rule="evenodd" d="M1.68852 11.1306L11.0218 6.63059C11.2152 6.53677 11.3778 6.39299 11.4913 6.21529C11.6049 6.03759 11.665 5.83296 11.665 5.62422C11.665 5.41548 11.6049 5.21085 11.4913 5.03315C11.3778 4.85545 11.2152 4.71167 11.0218 4.61785L1.68852 0.117849C1.51058 0.0325199 1.31301 -0.00763042 1.11449 0.00119573C0.915971 0.0100219 0.723069 0.0675324 0.554027 0.168289C0.384984 0.269045 0.245389 0.409716 0.148444 0.576998C0.0514978 0.74428 0.000405946 0.932644 0 1.12427V10.1243C0.000393811 10.3159 0.0514799 10.5043 0.148426 10.6716C0.245372 10.8389 0.384972 10.9795 0.554021 11.0803C0.72307 11.181 0.915979 11.2385 1.1145 11.2473C1.31302 11.2561 1.51059 11.216 1.68852 11.1306ZM15.1667 6.74928H22.1667C22.4761 6.74928 22.7728 6.63075 22.9916 6.41977C23.2104 6.20879 23.3333 5.92265 23.3333 5.62428C23.3333 5.32591 23.2104 5.03976 22.9916 4.82878C22.7728 4.61781 22.4761 4.49928 22.1667 4.49928H15.1667C14.8572 4.49928 14.5605 4.61781 14.3417 4.82878C14.1229 5.03976 14 5.32591 14 5.62428C14 5.92265 14.1229 6.20879 14.3417 6.41977C14.5605 6.63075 14.8572 6.74928 15.1667 6.74928ZM9.33319 8.99928H22.1665C22.4759 8.99928 22.7727 9.11781 22.9915 9.32878C23.2103 9.53976 23.3332 9.82591 23.3332 10.1243C23.3332 10.4227 23.2103 10.7088 22.9915 10.9198C22.7727 11.1308 22.4759 11.2493 22.1665 11.2493H9.33319C9.02377 11.2493 8.72703 11.1308 8.50823 10.9198C8.28944 10.7088 8.16652 10.4227 8.16652 10.1243C8.16652 9.82591 8.28944 9.53976 8.50823 9.32878C8.72703 9.11781 9.02377 8.99928 9.33319 8.99928ZM22.1667 13.4993H1.16667C0.857247 13.4993 0.560501 13.6178 0.341709 13.8288C0.122916 14.0398 0 14.3259 0 14.6243C0 14.9227 0.122916 15.2088 0.341709 15.4198C0.560501 15.6308 0.857247 15.7493 1.16667 15.7493H22.1667C22.4761 15.7493 22.7728 15.6308 22.9916 15.4198C23.2104 15.2088 23.3333 14.9227 23.3333 14.6243C23.3333 14.3259 23.2104 14.0398 22.9916 13.8288C22.7728 13.6178 22.4761 13.4993 22.1667 13.4993ZM1.16667 17.9993H22.1667C22.4761 17.9993 22.7728 18.1178 22.9916 18.3288C23.2104 18.5398 23.3333 18.8259 23.3333 19.1243C23.3333 19.4227 23.2104 19.7088 22.9916 19.9198C22.7728 20.1308 22.4761 20.2493 22.1667 20.2493H1.16667C0.857247 20.2493 0.560501 20.1308 0.341709 19.9198C0.122916 19.7088 0 19.4227 0 19.1243C0 18.8259 0.122916 18.5398 0.341709 18.3288C0.560501 18.1178 0.857247 17.9993 1.16667 17.9993Z" fill="#ACB8C2"/>
</svg>
