<svg width="21" height="17" viewBox="0 0 21 17" fill="none" xmlns="http://www.w3.org/2000/svg">
<path d="M19.1376 0.806105L11.8373 6.47205V1.60104C11.8372 1.41427 11.7857 1.23124 11.6884 1.07262C11.5912 0.914003 11.4521 0.786125 11.2869 0.70344C11.1218 0.620755 10.9371 0.58656 10.7537 0.60472C10.5704 0.62288 10.3957 0.692671 10.2494 0.806204L1.36168 7.7043C1.24141 7.79785 1.14398 7.9182 1.07693 8.05603C1.00987 8.19387 0.974998 8.3455 0.974998 8.49918C0.974998 8.65287 1.00987 8.8045 1.07693 8.94233C1.14398 9.08017 1.24141 9.20051 1.36168 9.29407L10.2494 16.1933C10.3958 16.3065 10.5704 16.376 10.7536 16.394C10.9369 16.412 11.1214 16.3778 11.2865 16.2951C11.4516 16.2125 11.5906 16.0848 11.6879 15.9263C11.7852 15.7679 11.8369 15.5851 11.8373 15.3984V10.5267L19.1367 16.1934C19.2829 16.307 19.4577 16.377 19.6411 16.3952C19.8245 16.4134 20.0093 16.3793 20.1746 16.2965C20.3399 16.2138 20.479 16.0859 20.5763 15.9272C20.6736 15.7684 20.7251 15.5853 20.725 15.3984V1.60104C20.7246 1.41451 20.6728 1.23181 20.5755 1.07349C20.4782 0.915178 20.3392 0.787533 20.1743 0.704923C20.0093 0.622313 19.8249 0.588016 19.6418 0.605891C19.4586 0.623767 19.284 0.693106 19.1376 0.806105Z" fill="#ACB8C2"/>
</svg>
