<svg width="23" height="45" viewBox="0 0 23 45" fill="none" xmlns="http://www.w3.org/2000/svg">
<path d="M22.5 44.5C22.7761 44.5 23 44.2761 23 44C23 43.7239 22.7761 43.5 22.5 43.5V44.5ZM4.35355 0.646447C4.15829 0.451184 3.84171 0.451184 3.64645 0.646447L0.464466 3.82843C0.269204 4.02369 0.269204 4.34027 0.464466 4.53553C0.659728 4.7308 0.976311 4.7308 1.17157 4.53553L4 1.70711L6.82843 4.53553C7.02369 4.7308 7.34027 4.7308 7.53553 4.53553C7.7308 4.34027 7.7308 4.02369 7.53553 3.82843L4.35355 0.646447ZM22.5 43.5H18V44.5H22.5V43.5ZM4.5 30V1H3.5V30H4.5ZM18 43.5C10.5442 43.5 4.5 37.4558 4.5 30H3.5C3.5 38.0081 9.99187 44.5 18 44.5V43.5Z" fill="black"/>
</svg>
