<svg width="25" height="29" viewBox="0 0 25 29" fill="none" xmlns="http://www.w3.org/2000/svg">
<path d="M12.228 0L24.4561 7.07939V21.2382L12.228 28.3176L0 21.2382V7.07939L12.228 0ZM12.228 2.97463L2.57432 8.56349V19.7541L12.228 25.3429L21.8818 19.7541V8.56349L12.228 2.97463ZM12.228 19.3074C10.8625 19.3074 9.55295 18.765 8.5874 17.7994C7.62184 16.8339 7.07939 15.5243 7.07939 14.1588C7.07939 12.7933 7.62184 11.4837 8.5874 10.5181C9.55295 9.55258 10.8625 9.01014 12.228 9.01014C13.5935 9.01014 14.9031 9.55258 15.8687 10.5181C16.8342 11.4837 17.3767 12.7933 17.3767 14.1588C17.3767 15.5243 16.8342 16.8339 15.8687 17.7994C14.9031 18.765 13.5935 19.3074 12.228 19.3074ZM12.228 16.7331C12.9108 16.7331 13.5656 16.4619 14.0484 15.9791C14.5311 15.4963 14.8024 14.8415 14.8024 14.1588C14.8024 13.476 14.5311 12.8212 14.0484 12.3385C13.5656 11.8557 12.9108 11.5845 12.228 11.5845C11.5453 11.5845 10.8905 11.8557 10.4077 12.3385C9.92494 12.8212 9.65372 13.476 9.65372 14.1588C9.65372 14.8415 9.92494 15.4963 10.4077 15.9791C10.8905 16.4619 11.5453 16.7331 12.228 16.7331Z" fill="#E6E6E6"/>
</svg>
