<svg width="20" height="20" viewBox="0 0 20 20" fill="none" xmlns="http://www.w3.org/2000/svg">
<path d="M19.4487 14.562L13.4482 11.2284C13.2957 11.1439 13.1263 11.104 12.9561 11.1126C12.7858 11.1212 12.6204 11.178 12.4754 11.2776C12.3304 11.3771 12.2108 11.5162 12.1277 11.6815C12.0446 11.8469 12.001 12.033 12.0008 12.2224V14.287C11.143 14.0447 10.3823 13.4917 9.83896 12.7153C9.29562 11.9389 9.00064 10.9835 9.00064 10C9.00064 9.01655 9.29562 8.06112 9.83896 7.28475C10.3823 6.50837 11.143 5.95533 12.0008 5.71304V7.77763C12.0012 7.96692 12.045 8.15297 12.1281 8.3182C12.2112 8.48343 12.3308 8.62238 12.4757 8.72189C12.6207 8.8214 12.786 8.87819 12.9562 8.88689C13.1264 8.89559 13.2957 8.85591 13.4482 8.7716L19.4487 5.43802C19.6144 5.34535 19.7537 5.20333 19.8511 5.02782C19.9484 4.8523 20 4.65018 20 4.444C20 4.23782 19.9484 4.0357 19.8511 3.86018C19.7537 3.68466 19.6144 3.54265 19.4487 3.44998L13.4482 0.116403C13.2957 0.0321207 13.1263 -0.00753676 12.9562 0.00118105C12.786 0.00989887 12.6207 0.0667036 12.4757 0.166223C12.3308 0.265743 12.2112 0.404687 12.1281 0.569917C12.045 0.735146 12.0012 0.921197 12.0008 1.11048V3.43287C11.1918 3.58524 10.4194 3.92021 9.73142 4.41712C9.0434 4.91402 8.45433 5.5623 8.00056 6.32197C7.45416 5.40356 6.71148 4.64987 5.83891 4.12826C4.96634 3.60666 3.99105 3.33338 3.00021 3.33286H1.00007C0.734835 3.33286 0.480463 3.44993 0.292914 3.65832C0.105364 3.86671 0 4.14935 0 4.44406C0 4.73876 0.105364 5.0214 0.292914 5.22979C0.480463 5.43818 0.734835 5.55525 1.00007 5.55525H3.00021C4.06115 5.55525 5.07863 6.02354 5.82883 6.85709C6.57903 7.69065 7.00049 8.82119 7.00049 10C7.00049 11.1788 6.57903 12.3094 5.82883 13.143C5.07863 13.9765 4.06115 14.4448 3.00021 14.4448H1.00007C0.734835 14.4448 0.480463 14.5619 0.292914 14.7703C0.105364 14.9786 0 15.2613 0 15.556C0 15.8507 0.105364 16.1333 0.292914 16.3417C0.480463 16.5501 0.734835 16.6672 1.00007 16.6672H3.00021C3.99105 16.6667 4.96634 16.3934 5.83891 15.8718C6.71148 15.3502 7.45416 14.5965 8.00056 13.6781C8.45433 14.4377 9.0434 15.086 9.73142 15.5829C10.4194 16.0798 11.1918 16.4148 12.0008 16.5672V18.8896C12.0012 19.0788 12.045 19.2649 12.1281 19.4301C12.2112 19.5954 12.3308 19.7343 12.4757 19.8338C12.6207 19.9333 12.786 19.9901 12.9562 19.9988C13.1264 20.0075 13.2957 19.9678 13.4482 19.8835L19.4487 16.5499C19.6144 16.4573 19.7537 16.3153 19.851 16.1398C19.9484 15.9642 19.9999 15.7621 19.9999 15.556C19.9999 15.3498 19.9484 15.1477 19.851 14.9722C19.7537 14.7967 19.6144 14.6547 19.4487 14.562Z" fill="#ACB8C2"/>
</svg>
