<svg width="53" height="51" viewBox="0 0 53 51" fill="none" xmlns="http://www.w3.org/2000/svg">
<path d="M3.31248 46.2187C3.07876 46.2201 2.84739 46.1739 2.63358 46.083C2.41976 45.9922 2.22834 45.8589 2.0719 45.6918C1.91546 45.5247 1.79755 45.3276 1.7259 45.1135C1.65426 44.8995 1.63052 44.6732 1.65623 44.4497L2.93155 33.2934C2.97694 32.9369 3.1462 32.6055 3.41186 32.3531L30.5081 6.27937C31.0004 5.80471 31.5851 5.42814 32.2289 5.1712C32.8726 4.91427 33.5626 4.78201 34.2595 4.78201C34.9564 4.78201 35.6465 4.91427 36.2902 5.1712C36.9339 5.42814 37.5186 5.80471 38.0109 6.27937L43.1619 11.2359C43.6551 11.7096 44.0465 12.2723 44.3135 12.8917C44.5805 13.5112 44.7179 14.1752 44.7179 14.8458C44.7179 15.5164 44.5805 16.1804 44.3135 16.7998C44.0465 17.4192 43.6551 17.9819 43.1619 18.4556L16.0822 44.5134C15.8199 44.7691 15.4755 44.9319 15.105 44.9756L3.51123 46.2028L3.31248 46.2187ZM6.1778 34.1859L5.18405 42.8241L14.1609 41.8678L40.8265 16.2084C41.0118 16.0308 41.1589 15.8196 41.2592 15.5872C41.3595 15.3547 41.4111 15.1055 41.4111 14.8537C41.4111 14.602 41.3595 14.3528 41.2592 14.1203C41.1589 13.8879 41.0118 13.6767 40.8265 13.4991L35.6591 8.52656C35.4744 8.34826 35.255 8.20679 35.0134 8.11027C34.7718 8.01374 34.5128 7.96405 34.2512 7.96405C33.9897 7.96405 33.7306 8.01374 33.4891 8.11027C33.2475 8.20679 33.0281 8.34826 32.8434 8.52656L6.1778 34.1859Z" fill="#F2F2F2"/>
<path d="M38.0937 22.6472C37.8757 22.6484 37.6597 22.6082 37.4579 22.5289C37.2561 22.4496 37.0725 22.3327 36.9178 22.185L26.6325 12.2559C26.478 12.1073 26.3555 11.9309 26.272 11.7368C26.1884 11.5426 26.1454 11.3345 26.1454 11.1244C26.1454 10.9142 26.1884 10.7061 26.272 10.512C26.3555 10.3178 26.478 10.1414 26.6325 9.99282C26.7869 9.84422 26.9702 9.72634 27.172 9.64592C27.3738 9.5655 27.59 9.52411 27.8084 9.52411C28.0268 9.52411 28.2431 9.5655 28.4448 9.64592C28.6466 9.72634 28.8299 9.84422 28.9843 9.99282L39.3028 19.9219C39.458 20.07 39.5812 20.2463 39.6653 20.4405C39.7494 20.6347 39.7927 20.843 39.7927 21.0534C39.7927 21.2638 39.7494 21.4721 39.6653 21.6664C39.5812 21.8606 39.458 22.0368 39.3028 22.185C39.1441 22.3366 38.9552 22.4557 38.7474 22.5351C38.5396 22.6145 38.3172 22.6527 38.0937 22.6472Z" fill="#F2F2F2"/>
<path d="M26.6411 19.9277L13.7468 32.3354L16.0891 34.5894L28.9834 22.1816L26.6411 19.9277Z" fill="#F2F2F2"/>
<path d="M49.6875 46.2188H23.1875C22.7482 46.2188 22.327 46.0508 22.0164 45.752C21.7057 45.4531 21.5312 45.0477 21.5312 44.625C21.5312 44.2023 21.7057 43.7969 22.0164 43.498C22.327 43.1992 22.7482 43.0312 23.1875 43.0312H49.6875C50.1268 43.0312 50.548 43.1992 50.8586 43.498C51.1693 43.7969 51.3438 44.2023 51.3438 44.625C51.3438 45.0477 51.1693 45.4531 50.8586 45.752C50.548 46.0508 50.1268 46.2188 49.6875 46.2188Z" fill="#F2F2F2"/>
</svg>
