<svg width="22" height="21" viewBox="0 0 22 21" fill="none" xmlns="http://www.w3.org/2000/svg">
<path d="M16.816 0.981117C16.3136 1.49775 16.3206 2.31641 16.7654 2.88344C20.2439 7.31797 20.2439 13.682 16.7654 18.1166C16.3206 18.6836 16.3136 19.5023 16.816 20.0189C17.3386 20.5563 18.2073 20.5591 18.6784 19.976C23.1072 14.4944 23.1072 6.50556 18.6784 1.02396C18.2073 0.440871 17.3386 0.443736 16.816 0.981117Z" fill="#ACB8C2"/>
<path d="M1.31286 15.8039C0.587788 15.8039 0 15.1995 0 14.4539V6.35433C0 5.60879 0.587788 5.0044 1.31286 5.0044H2.44461C2.8066 5.0044 3.15254 4.85071 3.40063 4.57967L6.92114 0.733506C7.73598 -0.156703 9.19003 0.436223 9.19003 1.6587V19.1496C9.19003 20.372 7.73598 20.965 6.92114 20.0747L3.40063 16.2286C3.15253 15.9575 2.8066 15.8039 2.44461 15.8039H1.31286Z" fill="#ACB8C2"/>
<path d="M12.8774 16.4323C12.375 15.9157 12.3888 15.0986 12.7836 14.4957C14.2689 12.2271 14.2689 9.23614 12.7836 6.96754C12.3888 6.36462 12.375 5.54754 12.8774 5.03091C13.4001 4.49353 14.2723 4.48942 14.712 5.09654C17.1271 8.43135 17.1271 13.0319 14.712 16.3667C14.2723 16.9738 13.4001 16.9697 12.8774 16.4323Z" fill="#ACB8C2"/>
</svg>
